<?xml version="1.0"?>
<svg xmlns="http://www.w3.org/2000/svg" xmlns:xlink="http://www.w3.org/1999/xlink" version="1.1" id="Capa_1" x="0px" y="0px" viewBox="0 0 289.104 289.104" style="enable-background:new 0 0 289.104 289.104;" xml:space="preserve" width="512px" height="512px" class=""><g><g>
	<path d="M289.104,113.766c0-15.293-12.441-27.734-27.734-27.734h-44.651L176.948,43.55c3.905-0.984,6.799-4.508,6.799-8.718   c0-4.971-4.029-9-9-9h-60.391c-4.971,0-9,4.029-9,9c0,4.21,2.894,7.734,6.799,8.718L72.386,86.032H27.734   C12.441,86.032,0,98.473,0,113.766c0,15.11,12.148,27.428,27.189,27.721l6.849,94.874c1.091,15.09,13.796,26.911,28.925,26.911   h163.178c15.129,0,27.834-11.821,28.925-26.912l6.849-94.873C276.956,141.194,289.104,128.876,289.104,113.766z M261.369,123.5   H27.734c-5.367,0-9.734-4.367-9.734-9.734s4.367-9.734,9.734-9.734h27.838c-3.015,3.636-2.721,9.033,0.773,12.304   c1.735,1.625,3.944,2.43,6.148,2.43c2.403,0,4.801-0.957,6.572-2.849l11.125-11.884h128.72l11.125,11.884   c1.771,1.893,4.169,2.849,6.572,2.849c2.204,0,4.413-0.805,6.148-2.43c3.494-3.271,3.788-8.668,0.773-12.304h27.838   c5.367,0,9.734,4.367,9.734,9.734S266.736,123.5,261.369,123.5z M136.548,43.833h16.008l39.505,42.199H97.043L136.548,43.833z    M226.141,245.271H62.963c-5.738,0-10.558-4.484-10.972-10.208L45.237,141.5h198.63l-6.755,93.562   C236.698,240.787,231.879,245.271,226.141,245.271z" data-original="#000000" class="active-path" data-old_color="#000000" fill="#FFFFFF"/>
	<rect x="76.427" y="157.787" width="22.462" height="28.215" data-original="#000000" class="active-path" data-old_color="#000000" fill="#FFFFFF"/>
	<rect x="114.356" y="157.787" width="22.463" height="28.215" data-original="#000000" class="active-path" data-old_color="#000000" fill="#FFFFFF"/>
	<rect x="152.285" y="157.787" width="22.463" height="28.215" data-original="#000000" class="active-path" data-old_color="#000000" fill="#FFFFFF"/>
	<rect x="190.214" y="157.787" width="22.462" height="28.215" data-original="#000000" class="active-path" data-old_color="#000000" fill="#FFFFFF"/>
	<rect x="76.427" y="196.035" width="22.462" height="28.215" data-original="#000000" class="active-path" data-old_color="#000000" fill="#FFFFFF"/>
	<rect x="114.356" y="196.035" width="22.463" height="28.215" data-original="#000000" class="active-path" data-old_color="#000000" fill="#FFFFFF"/>
	<rect x="152.285" y="196.035" width="22.463" height="28.215" data-original="#000000" class="active-path" data-old_color="#000000" fill="#FFFFFF"/>
	<rect x="190.214" y="196.035" width="22.462" height="28.215" data-original="#000000" class="active-path" data-old_color="#000000" fill="#FFFFFF"/>
</g></g> </svg>
