<svg xmlns="http://www.w3.org/2000/svg" style="display: none;"><symbol id="logo" viewBox="0 0 314.652 314.652"><title>logo</title><path d="M157.326,0C70.576,0,0,70.576,0,157.326s70.576,157.326,157.326,157.326s157.326-70.576,157.326-157.326 S244.076,0,157.326,0z M157.326,296.652C80.502,296.652,18,234.15,18,157.326S80.502,18,157.326,18s139.326,62.502,139.326,139.326 S234.15,296.652,157.326,296.652z"/><path d="M188.326,132.806c4.971,0,9-4.029,9-9s-4.029-9-9-9h-53v-9.146c0-4.971-4.029-9-9-9s-9,4.029-9,9v59.448 c0,29.161,23.724,52.886,52.885,52.886h18.115c4.971,0,9-4.029,9-9s-4.029-9-9-9h-18.115c-19.235,0-34.885-15.649-34.885-34.886 v-32.302H188.326z"/></symbol><symbol id="instagram" viewBox="0 0 314.652 314.652"><title>instagram</title><path d="M157.326,0C70.576,0,0,70.576,0,157.326s70.576,157.326,157.326,157.326s157.326-70.576,157.326-157.326 S244.076,0,157.326,0z M157.326,296.652C80.502,296.652,18,234.15,18,157.326S80.502,18,157.326,18s139.326,62.502,139.326,139.326 S234.15,296.652,157.326,296.652z"/><path d="M214.618,80.326H100.034c-10.477,0-19,8.523-19,19v116c0,10.477,8.523,19,19,19h114.584c10.477,0,19-8.523,19-19v-116 C233.618,88.85,225.095,80.326,214.618,80.326z M215.618,215.326c0,0.552-0.448,1-1,1H100.034c-0.552,0-1-0.448-1-1v-116 c0-0.552,0.448-1,1-1h114.584c0.552,0,1,0.448,1,1V215.326z"/><rect x="183.583" y="111.812" width="20.615" height="18.911"/><circle cx="157.326" cy="164.946" r="20.324"/><path d="M189.745,164.856c0,17.904-14.514,32.418-32.418,32.418s-32.418-14.514-32.418-32.418l0.044-14.445h-14.497v53.761h93.743 v-53.761H189.82L189.745,164.856z"/></symbol><symbol id="bag" viewBox="0 0 33 33"><title>bag</title><path d="M28.313,33H4.688c-0.137,0-0.268-0.056-0.362-0.155c-0.094-0.099-0.144-0.232-0.138-0.369L5.313,8.851 c0.013-0.267,0.232-0.476,0.5-0.476h21.375c0.267,0,0.487,0.209,0.5,0.476l1.125,23.625c0.006,0.137-0.043,0.27-0.138,0.369 C28.58,32.944,28.449,33,28.313,33z M5.212,32h22.576L26.711,9.375H6.289L5.212,32z"/><path d="M21.905,11.375c-0.276,0-0.5-0.224-0.5-0.5v-4.97C21.405,3.201,19.205,1,16.5,1s-4.905,2.201-4.905,4.905v4.97 c0,0.276-0.224,0.5-0.5,0.5s-0.5-0.224-0.5-0.5v-4.97C10.595,2.649,13.244,0,16.5,0s5.905,2.649,5.905,5.905v4.97 C22.405,11.151,22.182,11.375,21.905,11.375z"/></symbol><symbol id="flickr-social-outlined-logo-in-a-circle" viewBox="0 0 612 612"><title>flickr-social-outlined-logo-in-a-circle</title><path d="M413.748,212.267c-51.309,0-93.057,42.047-93.057,93.726c0,51.693,41.748,93.754,93.057,93.754 c51.31,0,93.058-42.061,93.058-93.754C506.791,254.313,465.058,212.267,413.748,212.267z M413.748,371.29 c-35.614,0-64.599-29.298-64.599-65.297c0-35.985,28.984-65.268,64.599-65.268c35.615,0,64.586,29.283,64.586,65.268 C478.334,341.992,449.363,371.29,413.748,371.29z M203.53,212.267c-51.309,0-93.057,42.047-93.057,93.726 c0,51.693,41.748,93.754,93.057,93.754c51.324,0,93.071-42.061,93.071-93.754C296.602,254.313,254.854,212.267,203.53,212.267z M203.53,371.29c-35.615,0-64.599-29.298-64.599-65.297c0-35.985,28.984-65.268,64.599-65.268 c35.629,0,64.614,29.283,64.614,65.268C268.144,341.992,239.16,371.29,203.53,371.29z M308.64,0.114 C138.447,0.114,0,137.337,0,306.021c0,168.655,138.447,305.865,308.64,305.865c167.275,0,303.36-137.21,303.36-305.865 C612,137.337,475.915,0.114,308.64,0.114z M308.64,583.414c-154.483,0-280.182-124.432-280.182-277.393 c0-152.989,125.698-277.45,280.182-277.45c151.58,0,274.902,124.46,274.902,277.45 C583.542,458.982,460.22,583.414,308.64,583.414z"/></symbol><symbol id="up-arrow" viewBox="0 0 64 64"><title>up-arrow</title><path fill="#1D1D1B" d="M3.352,48.296l28.56-28.328l28.58,28.347c0.397,0.394,0.917,0.59,1.436,0.59c0.52,0,1.04-0.196,1.436-0.59 c0.793-0.787,0.793-2.062,0-2.849l-29.98-29.735c-0.2-0.2-0.494-0.375-0.757-0.475c-0.75-0.282-1.597-0.107-2.166,0.456 L0.479,45.447c-0.793,0.787-0.793,2.062,0,2.849C1.273,49.082,2.558,49.082,3.352,48.296z"/></symbol></svg>